<svg width="183" height="54" viewBox="0 0 183 54" fill="none" xmlns="http://www.w3.org/2000/svg">
<g clip-path="url(#clip0_14_32)">
<path d="M19.3109 40.3337C18.3393 40.7784 17.1426 41.2231 15.7218 41.6679C14.2999 42.1131 12.8159 42.3354 11.2691 42.3354C10.2611 42.3354 9.3168 42.2052 8.43521 41.9463C7.55311 41.6874 6.77947 41.2708 6.1143 40.6959C5.44758 40.1214 4.9176 39.3808 4.52178 38.4723C4.12545 37.5644 3.92806 36.4627 3.92806 35.1651V18.4314H0.257782V12.7064H3.92806V3.25586H11.1607V12.7064H17.1514V18.4314H11.1612V32.662C11.1612 33.7002 11.4305 34.4324 11.9708 34.8575C12.5106 35.2842 13.1583 35.497 13.9134 35.497C14.6695 35.497 15.4062 35.3673 16.1269 35.1079C16.846 34.849 17.4223 34.6267 17.8535 34.4409L19.3109 40.3337Z" fill="#FAFAFA"/>
<path d="M39.7668 19.1547C37.5713 19.1918 35.6107 19.6275 33.884 20.4613C32.1568 21.2946 30.9154 22.5461 30.1598 24.2132V41.8347H22.9272V12.7065H29.566V18.9323C30.5376 16.9312 31.8057 15.3191 33.371 14.0962C34.9363 12.8727 36.5828 12.2612 38.3094 12.2612C38.7053 12.2612 39.0019 12.2713 39.1998 12.2893C39.3972 12.3083 39.5863 12.3364 39.7668 12.3724V19.1547Z" fill="#FAFAFA"/>
<path d="M51.046 12.707H43.8134V41.8353H51.046V12.707Z" fill="#FAFAFA"/>
<path d="M74.3636 42.3904C72.1681 42.3904 70.2425 41.8806 68.5883 40.8615C66.9326 39.8429 65.6377 38.4627 64.7022 36.7204V53.6748H57.4695V12.7068H63.7846V17.7092C64.8276 16.0051 66.1769 14.6614 67.8327 13.6794C69.4874 12.6978 71.395 12.2065 73.554 12.2065C75.4606 12.2065 77.2243 12.6052 78.8435 13.402C80.4623 14.1993 81.8569 15.2734 83.0268 16.6261C84.1953 17.9792 85.1133 19.5717 85.779 21.4061C86.4447 23.2411 86.7773 25.1777 86.7773 27.2154C86.7773 29.3277 86.4709 31.3104 85.8597 33.1633C85.248 35.0168 84.3932 36.6288 83.2962 37.9995C82.1982 39.3712 80.8853 40.4454 79.356 41.2236C77.8262 42.0018 76.1623 42.3904 74.3636 42.3904ZM71.9887 36.0539C73.0682 36.0539 74.0665 35.8135 74.9841 35.3312C75.9016 34.85 76.6845 34.201 77.3317 33.3857C77.9799 32.5709 78.4832 31.6259 78.843 30.5507C79.2023 29.4765 79.3828 28.3647 79.3828 27.2154C79.3828 25.9924 79.1843 24.8531 78.789 23.797C78.3927 22.7408 77.8447 21.8233 77.1431 21.0456C76.4414 20.2668 75.6128 19.6559 74.6602 19.2107C73.7067 18.766 72.6719 18.5436 71.5569 18.5436C70.8728 18.5436 70.1711 18.6648 69.4514 18.9052C68.7317 19.1466 68.0661 19.4891 67.4544 19.9333C66.8421 20.378 66.2936 20.8974 65.8084 21.4898C65.3226 22.0827 64.953 22.7318 64.7022 23.4354V30.2727C65.3498 31.9398 66.3394 33.3216 67.6702 34.4138C69.0011 35.507 70.441 36.0539 71.9887 36.0539Z" fill="#FAFAFA"/>
<path d="M98.8122 12.707H91.5801V41.8353H98.8122V12.707Z" fill="#FAFAFA"/>
<path d="M113.873 42.3901C110.958 42.3901 108.745 41.4271 107.233 39.4995C105.722 37.573 104.967 34.719 104.967 30.939V12.7065H112.199V29.3274C112.199 33.8121 113.764 36.0536 116.896 36.0536C118.334 36.0536 119.71 35.6184 121.024 34.747C122.337 33.8767 123.408 32.5515 124.236 30.7727V12.7065H131.468V33.2742C131.468 34.0524 131.612 34.6083 131.9 34.9418C132.187 35.2754 132.691 35.4607 133.411 35.4977V41.8348C132.655 41.9825 131.989 42.0852 131.414 42.1403C130.838 42.1958 130.334 42.2239 129.903 42.2239C128.607 42.2239 127.59 41.9179 126.853 41.307C126.114 40.6955 125.656 39.8527 125.476 38.7774L125.315 36.3871C124.019 38.3883 122.391 39.8892 120.43 40.8898C118.469 41.8904 116.283 42.3901 113.873 42.3901Z" fill="#FAFAFA"/>
<path d="M182.742 41.8351H175.511V25.4921C175.511 23.1574 175.114 21.4532 174.323 20.378C173.531 19.3038 172.451 18.766 171.084 18.766C169.681 18.766 168.349 19.3314 167.09 20.4617C165.83 21.5925 164.931 23.0653 164.391 24.8807V41.8351H157.158V25.4921C157.158 23.1574 156.772 21.4532 155.998 20.378C155.224 19.3038 154.153 18.766 152.787 18.766C151.384 18.766 150.042 19.3218 148.766 20.4336C147.488 21.5454 146.579 23.0097 146.04 24.8251V41.8351H138.807V12.7068H145.338V18.0989C146.381 16.2089 147.812 14.7551 149.63 13.7355C151.446 12.7164 153.524 12.2065 155.864 12.2065C158.238 12.2065 160.064 12.7995 161.342 13.9848C162.618 15.1712 163.455 16.6351 163.851 18.3768C165.003 16.3757 166.461 14.8467 168.224 13.7905C169.987 12.7344 172.002 12.2065 174.269 12.2065C175.996 12.2065 177.417 12.5401 178.533 13.2071C179.648 13.8742 180.512 14.7451 181.124 15.8203C181.735 16.895 182.158 18.1185 182.392 19.4891C182.626 20.8608 182.743 22.2505 182.743 23.6582V41.8351H182.742Z" fill="#FAFAFA"/>
<path opacity="0.5" d="M47.5088 9.3379C49.9253 9.3379 51.8843 7.32034 51.8843 4.83155C51.8843 2.34276 49.9253 0.325195 47.5088 0.325195C45.0922 0.325195 43.1332 2.34276 43.1332 4.83155C43.1332 7.32034 45.0922 9.3379 47.5088 9.3379Z" fill="#FAFAFA"/>
<path opacity="0.5" d="M95.1258 9.33733C97.5421 9.33733 99.5008 7.32 99.5008 4.83151C99.5008 2.34301 97.5421 0.325684 95.1258 0.325684C92.7095 0.325684 90.7508 2.34301 90.7508 4.83151C90.7508 7.32 92.7095 9.33733 95.1258 9.33733Z" fill="#FAFAFA"/>
</g>
<defs>
<linearGradient id="paint0_linear_14_32" x1="401.6" y1="5.32015e-06" x2="546.315" y2="404.186" gradientUnits="userSpaceOnUse">
<stop stop-color="#0EA5E9"/>
<stop offset="1" stop-color="#00C16A"/>
</linearGradient>
<clipPath id="clip0_14_32">
<rect width="1440" height="4877" fill="white" transform="translate(-44 -4689)"/>
</clipPath>
<clipPath id="clip1_14_32">
<rect width="183" height="54" fill="white"/>
</clipPath>
</defs>
</svg>
