<svg width="16" height="16" viewBox="0 0 16 16" fill="none" xmlns="http://www.w3.org/2000/svg">
<path d="M4.23338 13.8666L4.78338 12.6333C4.62783 12.5111 4.47783 12.3918 4.33338 12.2753C4.18894 12.1589 4.05005 12.0338 3.91672 11.9C3.82783 11.9333 3.74183 11.9584 3.65872 11.9753C3.5756 11.9922 3.48383 12.0004 3.38338 12C3.01672 12 2.70294 11.8695 2.44205 11.6086C2.18116 11.3478 2.05049 11.0338 2.05005 10.6666C2.05005 10.4444 2.09738 10.2415 2.19205 10.058C2.28672 9.87442 2.41716 9.72176 2.58338 9.59998C2.49449 9.34442 2.43338 9.0862 2.40005 8.82531C2.36672 8.56442 2.35005 8.28931 2.35005 7.99998C2.35005 7.71065 2.36672 7.43576 2.40005 7.17531C2.43338 6.91487 2.49449 6.65642 2.58338 6.39998C2.41672 6.27776 2.28627 6.12509 2.19205 5.94198C2.09783 5.75887 2.05049 5.55598 2.05005 5.33331C2.05005 4.96665 2.18072 4.65287 2.44205 4.39198C2.70338 4.13109 3.01716 4.00042 3.38338 3.99998C3.48338 3.99998 3.57516 4.00842 3.65872 4.02531C3.74227 4.0422 3.82827 4.06709 3.91672 4.09998C4.28338 3.69998 4.70294 3.36665 5.17538 3.09998C5.64783 2.83331 6.15049 2.63331 6.68338 2.49998C6.73894 2.16665 6.89183 1.88887 7.14205 1.66665C7.39227 1.44442 7.68383 1.33331 8.01672 1.33331C8.3496 1.33331 8.64138 1.44731 8.89205 1.67531C9.14272 1.90331 9.29538 2.1782 9.35005 2.49998C9.88338 2.63331 10.3863 2.83065 10.8587 3.09198C11.3312 3.35331 11.7505 3.6782 12.1167 4.06665C12.2056 4.03331 12.2889 4.00842 12.3667 3.99198C12.4445 3.97554 12.5278 3.96709 12.6167 3.96665C12.9834 3.96665 13.2974 4.09731 13.5587 4.35865C13.82 4.61998 13.9505 4.93376 13.95 5.29998C13.95 5.5222 13.9056 5.71954 13.8167 5.89198C13.7278 6.06442 13.6056 6.21154 13.45 6.33331C13.5389 6.59998 13.6 6.8722 13.6334 7.14998C13.6667 7.42776 13.6834 7.71109 13.6834 7.99998C13.6834 8.28887 13.6667 8.56954 13.6334 8.84198C13.6 9.11442 13.5389 9.3782 13.45 9.63331C13.6056 9.75554 13.7278 9.90287 13.8167 10.0753C13.9056 10.2478 13.95 10.4449 13.95 10.6666C13.95 11.0333 13.8196 11.3471 13.5587 11.608C13.2978 11.8689 12.9838 11.9995 12.6167 12C12.5278 12 12.4445 11.9915 12.3667 11.9746C12.2889 11.9578 12.2056 11.9329 12.1167 11.9C11.9834 12.0333 11.8474 12.1638 11.7087 12.2913C11.57 12.4189 11.4172 12.544 11.25 12.6666L11.7667 13.8833C11.8556 14.0722 11.8418 14.25 11.7254 14.4166C11.6089 14.5833 11.4505 14.6666 11.25 14.6666C11.1278 14.6666 11.0223 14.6333 10.9334 14.5666C10.8445 14.5 10.7778 14.4166 10.7334 14.3166L10.25 13.2C10.0945 13.2666 9.94449 13.3251 9.80005 13.3753C9.6556 13.4255 9.5056 13.4671 9.35005 13.5C9.29449 13.8222 9.1416 14.0973 8.89138 14.3253C8.64116 14.5533 8.3496 14.6671 8.01672 14.6666C7.68383 14.6662 7.39227 14.5551 7.14205 14.3333C6.89183 14.1115 6.73894 13.8338 6.68338 13.5C6.51672 13.4666 6.35849 13.4251 6.20872 13.3753C6.05894 13.3255 5.90605 13.2671 5.75005 13.2L5.26672 14.3333C5.22227 14.4333 5.15294 14.514 5.05872 14.5753C4.96449 14.6366 4.8616 14.6671 4.75005 14.6666C4.55005 14.6666 4.39183 14.5806 4.27538 14.4086C4.15894 14.2366 4.14494 14.056 4.23338 13.8666ZM5.15005 11.7666L6.18338 9.43331C6.02783 9.23331 5.9056 9.01109 5.81672 8.76665C5.72783 8.5222 5.68338 8.26665 5.68338 7.99998C5.68338 7.36665 5.91405 6.81931 6.37538 6.35798C6.83672 5.89665 7.38383 5.6662 8.01672 5.66665C8.6496 5.66709 9.19694 5.89776 9.65872 6.35865C10.1205 6.81954 10.3509 7.36665 10.35 7.99998C10.35 8.26665 10.3027 8.52776 10.208 8.78331C10.1134 9.03887 9.98294 9.26665 9.81672 9.46665L10.85 11.7666C10.95 11.6778 11.0474 11.5973 11.142 11.5253C11.2367 11.4533 11.3283 11.3671 11.4167 11.2666C11.3612 11.1778 11.3252 11.0806 11.3087 10.9753C11.2923 10.87 11.2838 10.7671 11.2834 10.6666C11.2834 10.3111 11.4056 10.0055 11.65 9.74998C11.8945 9.49442 12.1945 9.35554 12.55 9.33331C12.6167 9.11109 12.6667 8.89176 12.7 8.67531C12.7334 8.45887 12.75 8.23376 12.75 7.99998C12.75 7.7662 12.7334 7.53576 12.7 7.30865C12.6667 7.08154 12.6167 6.85642 12.55 6.63331C12.1945 6.61109 11.8945 6.4722 11.65 6.21665C11.4056 5.96109 11.2834 5.65554 11.2834 5.29998C11.2834 5.19998 11.2974 5.10287 11.3254 5.00865C11.3534 4.91442 11.3838 4.82265 11.4167 4.73331C11.0945 4.41109 10.7389 4.13887 10.35 3.91665C9.96116 3.69442 9.55005 3.5222 9.11672 3.39998C8.99449 3.58887 8.83894 3.7362 8.65005 3.84198C8.46116 3.94776 8.25005 4.00042 8.01672 3.99998C7.78338 3.99954 7.57227 3.94665 7.38338 3.84131C7.19449 3.73598 7.03894 3.58887 6.91672 3.39998C6.46116 3.5222 6.03894 3.69731 5.65005 3.92531C5.26116 4.15331 4.9056 4.43376 4.58338 4.76665C4.61672 4.85554 4.64738 4.94731 4.67538 5.04198C4.70338 5.13665 4.71716 5.23376 4.71672 5.33331C4.71672 5.68887 4.60005 5.99176 4.36672 6.24198C4.13338 6.4922 3.83894 6.63376 3.48338 6.66665C3.41672 6.88887 3.36672 7.10842 3.33338 7.32531C3.30005 7.5422 3.28338 7.76709 3.28338 7.99998C3.28338 8.23287 3.30005 8.45798 3.33338 8.67531C3.36672 8.89265 3.41672 9.11198 3.48338 9.33331C3.83894 9.35554 4.13338 9.49442 4.36672 9.74998C4.60005 10.0055 4.71672 10.3111 4.71672 10.6666C4.71672 10.7666 4.70849 10.864 4.69205 10.9586C4.6756 11.0533 4.63938 11.1449 4.58338 11.2333C4.67227 11.3333 4.76405 11.4251 4.85872 11.5086C4.95338 11.5922 5.05049 11.6782 5.15005 11.7666ZM6.15005 12.3333C6.27227 12.3889 6.39738 12.4389 6.52538 12.4833C6.65338 12.5278 6.78383 12.5666 6.91672 12.6C7.03894 12.4111 7.19449 12.264 7.38338 12.1586C7.57227 12.0533 7.78338 12.0004 8.01672 12C8.25005 11.9995 8.46116 12.0524 8.65005 12.1586C8.83894 12.2649 8.99449 12.412 9.11672 12.6C9.25005 12.5666 9.37494 12.5278 9.49138 12.4833C9.60783 12.4389 9.72738 12.3889 9.85005 12.3333L8.88338 10.1666C8.75005 10.2222 8.61116 10.264 8.46672 10.292C8.32227 10.32 8.17227 10.3338 8.01672 10.3333C7.85005 10.3333 7.69161 10.3166 7.54138 10.2833C7.39116 10.25 7.2496 10.2 7.11672 10.1333L6.15005 12.3333Z" fill="black"/>
</svg>
