<svg width="16" height="16" viewBox="0 0 16 16" fill="none" xmlns="http://www.w3.org/2000/svg">
<path d="M5.33333 11.3333C5.52222 11.3333 5.68067 11.2693 5.80867 11.1413C5.93667 11.0133 6.00044 10.8551 6 10.6667C5.99956 10.4782 5.93556 10.32 5.808 10.192C5.68044 10.064 5.52222 10 5.33333 10C5.14444 10 4.98622 10.064 4.85867 10.192C4.73111 10.32 4.66711 10.4782 4.66667 10.6667C4.66622 10.8551 4.73022 11.0136 4.85867 11.142C4.98711 11.2704 5.14533 11.3342 5.33333 11.3333ZM5.33333 8.66667C5.52222 8.66667 5.68067 8.60267 5.80867 8.47467C5.93667 8.34667 6.00044 8.18844 6 8C5.99956 7.81156 5.93556 7.65333 5.808 7.52533C5.68044 7.39733 5.52222 7.33333 5.33333 7.33333C5.14444 7.33333 4.98622 7.39733 4.85867 7.52533C4.73111 7.65333 4.66711 7.81156 4.66667 8C4.66622 8.18844 4.73022 8.34689 4.85867 8.47533C4.98711 8.60378 5.14533 8.66756 5.33333 8.66667ZM5.33333 6C5.52222 6 5.68067 5.936 5.80867 5.808C5.93667 5.68 6.00044 5.52178 6 5.33333C5.99956 5.14489 5.93556 4.98667 5.808 4.85867C5.68044 4.73067 5.52222 4.66667 5.33333 4.66667C5.14444 4.66667 4.98622 4.73067 4.85867 4.85867C4.73111 4.98667 4.66711 5.14489 4.66667 5.33333C4.66622 5.52178 4.73022 5.68022 4.85867 5.80867C4.98711 5.93711 5.14533 6.00089 5.33333 6ZM7.33333 11.3333H11.3333V10H7.33333V11.3333ZM7.33333 8.66667H11.3333V7.33333H7.33333V8.66667ZM7.33333 6H11.3333V4.66667H7.33333V6ZM3.33333 14C2.96667 14 2.65289 13.8696 2.392 13.6087C2.13111 13.3478 2.00044 13.0338 2 12.6667V3.33333C2 2.96667 2.13067 2.65289 2.392 2.392C2.65333 2.13111 2.96711 2.00044 3.33333 2H12.6667C13.0333 2 13.3473 2.13067 13.6087 2.392C13.87 2.65333 14.0004 2.96711 14 3.33333V12.6667C14 13.0333 13.8696 13.3473 13.6087 13.6087C13.3478 13.87 13.0338 14.0004 12.6667 14H3.33333Z" fill="black"/>
</svg>
