<svg width="16" height="16" viewBox="0 0 16 16" fill="none" xmlns="http://www.w3.org/2000/svg">
<path d="M2.84991 3.67599C2.83432 3.3238 2.624 3.03599 2.26605 3.01037C2.17632 3.00391 2.07249 3.00047 1.95455 3.00006C1.77764 2.99943 1.73309 3.00412 1.64305 3.01037C1.28509 3.03599 1.07477 3.3238 1.05918 3.67599C1.03214 4.28692 1 5.53223 1 8.00002C1 10.4678 1.03214 11.7131 1.05918 12.3241C1.07477 12.6762 1.28509 12.964 1.64305 12.9897C1.73277 12.9963 1.83661 12.9998 1.95455 13C2.13146 13.0003 2.176 12.9962 2.26605 12.9897C2.624 12.964 2.83432 12.6762 2.84991 12.3241C2.86423 12.0025 2.87982 11.5053 2.89128 10.7466C2.90994 10.7484 2.92872 10.7497 2.9476 10.7503C3.60751 10.7775 5.03201 10.8125 8.00002 10.8125C10.968 10.8125 12.3925 10.7778 13.0528 10.7503C13.071 10.7497 13.089 10.7484 13.1069 10.7466C13.1186 11.505 13.1342 12.0022 13.1482 12.3237C13.1641 12.6759 13.3741 12.964 13.7324 12.9894C13.8221 12.9962 13.926 12.9998 14.0439 13C14.1618 12.9996 14.2657 12.9961 14.3554 12.9897C14.7134 12.964 14.9237 12.6759 14.9393 12.3237C14.9596 11.8587 14.9832 11.0256 14.9934 9.56532C14.9939 9.48305 14.9778 9.4015 14.9461 9.32535C14.9144 9.2492 14.8677 9.17997 14.8086 9.12162C14.7496 9.06327 14.6793 9.01697 14.602 8.98537C14.5247 8.95378 14.4417 8.93751 14.3579 8.93751H13.0909V8.99064C12.9892 8.95549 12.8822 8.93753 12.7744 8.93751H8.00002C5.03201 8.93751 3.60751 8.97251 2.94728 8.9997L2.90719 9.00189C2.90846 8.69293 2.9091 8.35898 2.9091 8.00002C2.9091 5.53254 2.87696 4.28692 2.84991 3.67599Z" fill="black"/>
<path d="M7.11543 4.72595C7.15711 4.29782 7.51443 3.97595 7.95225 3.95814C9.50308 3.8947 10.9384 3.98658 12.1036 4.12001C13.8259 4.31751 15 5.80344 15 7.50655V7.68749C15 7.85325 14.933 8.01222 14.8136 8.12942C14.6943 8.24663 14.5324 8.31248 14.3636 8.31248H7.74384C7.43393 8.31248 7.17111 8.09373 7.13707 7.79124C7.07624 7.24829 7.04564 6.70248 7.04543 6.15625C7.04543 5.59688 7.07884 5.10094 7.11543 4.72595ZM6.40907 6.90624C6.40907 7.2792 6.25821 7.63688 5.9897 7.9006C5.72118 8.16432 5.35699 8.31248 4.97725 8.31248C4.5975 8.31248 4.23331 8.16432 3.96479 7.9006C3.69628 7.63688 3.54542 7.2792 3.54542 6.90624C3.54542 6.53328 3.69628 6.1756 3.96479 5.91188C4.23331 5.64816 4.5975 5.5 4.97725 5.5C5.35699 5.5 5.72118 5.64816 5.9897 5.91188C6.25821 6.1756 6.40907 6.53328 6.40907 6.90624Z" fill="black"/>
</svg>
