<svg width="16" height="16" viewBox="0 0 16 16" fill="none" xmlns="http://www.w3.org/2000/svg">
<path d="M13.9802 5.86789L13.9952 5.99568L14 6.12615V11.0144C13.9999 11.2892 13.9316 11.5598 13.8008 11.8025C13.6701 12.0452 13.481 12.2526 13.2502 12.4066L13.1478 12.4705L8.85285 14.9146L8.76825 14.9596L8.68228 15V8.95362L13.9802 5.86789ZM2.01979 5.86789L7.31772 8.9543V14.9993C7.25955 14.9737 7.20263 14.9454 7.14715 14.9146L2.85285 12.4705C2.59356 12.3229 2.37824 12.1107 2.22853 11.8551C2.07883 11.5995 2.00001 11.3095 2 11.0144V6.12615C2 6.03872 2.00682 5.95263 2.02047 5.86789H2.01979ZM8.85285 2.22594L13.1471 4.67005C13.1817 4.69022 13.2154 4.71085 13.2481 4.73192L8 7.79008L2.75188 4.73125C2.78492 4.70967 2.81859 4.68903 2.85285 4.66937L7.14715 2.22527C7.40645 2.07769 7.70058 2 8 2C8.29941 2 8.59355 2.07836 8.85285 2.22594Z" fill="black"/>
</svg>
