<svg width="16" height="16" viewBox="0 0 16 16" fill="none" xmlns="http://www.w3.org/2000/svg">
<path d="M10.6667 1.33331H2.66667C2.48986 1.33331 2.32029 1.40355 2.19526 1.52858C2.07024 1.6536 2 1.82317 2 1.99998V14C2 14.1768 2.07024 14.3464 2.19526 14.4714C2.32029 14.5964 2.48986 14.6666 2.66667 14.6666H8.17C7.58153 13.8223 7.28869 12.8071 7.33705 11.7791C7.38541 10.751 7.77226 9.76779 8.43739 8.98241C9.10252 8.19703 10.0086 7.65355 11.0147 7.43657C12.0207 7.21958 13.0703 7.34125 14 7.78265V4.66665L10.6667 1.33331ZM9.19067 10.218C9.21667 9.73331 9.59067 9.33865 10.0733 9.28731L10.6533 9.22598C10.7224 9.21849 10.7875 9.18959 10.8393 9.14331L11.2733 8.75331C11.448 8.59592 11.6731 8.50607 11.9082 8.49996C12.1432 8.49385 12.3727 8.57187 12.5553 8.71998L13.01 9.08665C13.0633 9.12998 13.13 9.15531 13.1993 9.15931L13.782 9.19065C14.2667 9.21665 14.6613 9.59065 14.7127 10.0733L14.774 10.6533C14.7815 10.7224 14.8104 10.7874 14.8567 10.8393L15.2467 11.2733C15.5713 11.6346 15.5853 12.178 15.28 12.5553L14.9133 13.01C14.87 13.064 14.8446 13.1302 14.8407 13.1993L14.8093 13.782C14.7973 14.0168 14.7017 14.2397 14.5399 14.4103C14.378 14.5809 14.1606 14.6882 13.9267 14.7126L13.3467 14.774C13.2776 14.7815 13.2125 14.8104 13.1607 14.8566L12.7267 15.2466C12.552 15.404 12.3269 15.4939 12.0918 15.5C11.8568 15.5061 11.6273 15.4281 11.4447 15.28L10.99 14.9133C10.936 14.87 10.8698 14.8446 10.8007 14.8406L10.218 14.8093C9.98313 14.7972 9.7603 14.7017 9.58967 14.5398C9.41903 14.378 9.31181 14.1605 9.28733 13.9266L9.226 13.3466C9.21851 13.2775 9.18961 13.2125 9.14333 13.1606L8.75333 12.7266C8.59594 12.552 8.50609 12.3268 8.49998 12.0918C8.49387 11.8568 8.57189 11.6273 8.72 11.4446L9.08667 10.99C9.12996 10.9359 9.15536 10.8698 9.15933 10.8006L9.19067 10.218ZM14.02 11.3533L13.3133 10.6466L11.6667 12.2933L10.6867 11.3133L9.98 12.02L11.3133 13.3533L11.6667 13.7066L12.02 13.3533L14.02 11.3533Z" fill="black"/>
</svg>
