<svg width="16" height="16" viewBox="0 0 16 16" fill="none" xmlns="http://www.w3.org/2000/svg">
<path d="M4 2.75C4 1.784 4.784 1 5.75 1H10.25C11.216 1 12 1.784 12 2.75V13.25C12 13.7141 11.8156 14.1592 11.4874 14.4874C11.1592 14.8156 10.7141 15 10.25 15H5.75C5.28587 15 4.84075 14.8156 4.51256 14.4874C4.18437 14.1592 4 13.7141 4 13.25V2.75ZM7 12C6.86739 12 6.74021 12.0527 6.64645 12.1464C6.55268 12.2402 6.5 12.3674 6.5 12.5C6.5 12.6326 6.55268 12.7598 6.64645 12.8536C6.74021 12.9473 6.86739 13 7 13H9C9.13261 13 9.25979 12.9473 9.35355 12.8536C9.44732 12.7598 9.5 12.6326 9.5 12.5C9.5 12.3674 9.44732 12.2402 9.35355 12.1464C9.25979 12.0527 9.13261 12 9 12H7Z" fill="black"/>
</svg>
