<svg width="16" height="16" viewBox="0 0 16 16" fill="none" xmlns="http://www.w3.org/2000/svg">
<path d="M6.87417 3.9159C8.13703 4.29977 9.461 4.4422 10.7767 4.33571C10.8143 4.3342 10.8499 4.31818 10.876 4.291C10.9021 4.26383 10.9167 4.22761 10.9167 4.18994V1.58363C10.9168 1.48837 10.8935 1.39454 10.8489 1.31035C10.8043 1.22615 10.7398 1.15415 10.661 1.10065C10.5821 1.04715 10.4913 1.01377 10.3966 1.00344C10.3019 0.993108 10.206 1.00613 10.1175 1.04138C8.11083 1.85767 3.80583 1.85767 1.79917 1.04138C1.71063 1.00613 1.6148 0.993108 1.52006 1.00344C1.42532 1.01377 1.33456 1.04715 1.2557 1.10065C1.17685 1.15415 1.11232 1.22615 1.06774 1.31035C1.02317 1.39454 0.999908 1.48837 1 1.58363V5.51933C1 7.60671 2.61 9.44337 4.05083 10.4754C4.07634 10.4908 4.1056 10.499 4.13542 10.499C4.16524 10.499 4.19449 10.4908 4.22 10.4754C4.24359 10.4573 4.26159 10.433 4.27191 10.4051C4.28223 10.3772 4.28446 10.347 4.27833 10.318C4.20186 9.9615 4.16276 9.59804 4.16167 9.23347V5.73507C4.16284 5.41283 4.24305 5.0958 4.39527 4.81174C4.54748 4.52769 4.76706 4.28527 5.03477 4.10573C5.30247 3.92619 5.61014 3.815 5.93082 3.78191C6.2515 3.74881 6.5754 3.79482 6.87417 3.9159Z" fill="black"/>
<path d="M14.5158 4.83714C14.3666 4.73678 14.1951 4.67424 14.0162 4.65494C13.8373 4.63564 13.6564 4.66015 13.4892 4.72636C11.8325 5.39689 8.19833 5.39689 6.5475 4.72636C6.38023 4.66015 6.19934 4.63564 6.02047 4.65494C5.8416 4.67424 5.67012 4.73678 5.52083 4.83714C5.37137 4.93712 5.24895 5.07247 5.16448 5.23117C5.08001 5.38986 5.0361 5.56697 5.03667 5.74673V9.24513C5.03667 12.3879 8.65333 15 10.0183 15C11.3833 15 15 12.382 15 9.2393V5.7409C14.9996 5.56213 14.9552 5.3862 14.8708 5.2286C14.7864 5.071 14.6645 4.93657 14.5158 4.83714ZM13.8333 9.2393C13.8333 11.7115 10.7417 13.828 10.0183 13.828C9.295 13.828 6.20333 11.7115 6.20333 9.2393V6.04992C6.20233 6.02713 6.20716 6.00446 6.21737 5.98405C6.22758 5.96365 6.24282 5.94618 6.26167 5.93331C6.28224 5.92208 6.30531 5.9162 6.32875 5.9162C6.35219 5.9162 6.37526 5.92208 6.39583 5.93331C8.76827 6.57426 11.2684 6.57426 13.6408 5.93331C13.6614 5.92208 13.6845 5.9162 13.7079 5.9162C13.7314 5.9162 13.7544 5.92208 13.775 5.93331C13.7928 5.94719 13.8073 5.96485 13.8173 5.98503C13.8274 6.0052 13.8329 6.02737 13.8333 6.04992V9.2393Z" fill="black"/>
<path d="M11.7625 10.3938C11.664 10.3385 11.5477 10.324 11.4387 10.3535C11.3296 10.3829 11.2365 10.4539 11.1792 10.5512C11.0633 10.7535 10.896 10.9217 10.6942 11.0386C10.4924 11.1556 10.2633 11.2172 10.03 11.2172C9.79674 11.2172 9.56762 11.1556 9.36583 11.0386C9.16403 10.9217 8.99672 10.7535 8.88083 10.5512C8.82251 10.455 8.72936 10.385 8.62072 10.3557C8.51209 10.3263 8.39633 10.34 8.2975 10.3938C8.20014 10.451 8.12912 10.5442 8.09967 10.6532C8.07023 10.7622 8.0847 10.8784 8.14 10.9768C8.33261 11.3124 8.61042 11.5912 8.94534 11.7851C9.28027 11.979 9.66046 12.0811 10.0475 12.0811C10.4345 12.0811 10.8147 11.979 11.1497 11.7851C11.4846 11.5912 11.7624 11.3124 11.955 10.9768C12.006 10.8739 12.0144 10.755 11.9783 10.6459C11.9423 10.5367 11.8648 10.4462 11.7625 10.3938ZM11.6692 7.26853C11.3979 7.26869 11.1333 7.35287 10.9118 7.50949C10.6904 7.66611 10.5229 7.88748 10.4325 8.14313C10.4083 8.19817 10.3958 8.2576 10.3956 8.31771C10.3955 8.37781 10.4077 8.43731 10.4316 8.49247C10.4554 8.54764 10.4904 8.5973 10.5344 8.63834C10.5783 8.67939 10.6302 8.71094 10.6869 8.73103C10.7436 8.75111 10.8038 8.75931 10.8638 8.7551C10.9238 8.75089 10.9822 8.73436 11.0355 8.70655C11.0888 8.67874 11.1359 8.64024 11.1736 8.59346C11.2114 8.54668 11.2391 8.49263 11.255 8.43467C11.286 8.34961 11.3423 8.27607 11.4163 8.22395C11.4904 8.17183 11.5786 8.14363 11.6692 8.14313C11.7599 8.14278 11.8485 8.17066 11.9228 8.22289C11.997 8.27513 12.0531 8.34913 12.0833 8.43467C12.1136 8.5202 12.1697 8.59421 12.2439 8.64644C12.3181 8.69868 12.4067 8.72655 12.4975 8.7262C12.5457 8.73495 12.5951 8.73495 12.6433 8.7262C12.7001 8.70676 12.7524 8.67599 12.797 8.63576C12.8415 8.59553 12.8774 8.54667 12.9025 8.49214C12.9276 8.43762 12.9413 8.37857 12.9429 8.31858C12.9445 8.25858 12.9339 8.1989 12.9117 8.14313C12.8202 7.88701 12.6516 7.66547 12.4292 7.50888C12.2067 7.35229 11.9412 7.26834 11.6692 7.26853ZM8.77583 8.43467C8.80609 8.5202 8.8622 8.59421 8.93641 8.64644C9.01062 8.69868 9.09924 8.72655 9.19 8.7262C9.23822 8.73495 9.28761 8.73495 9.33583 8.7262C9.39264 8.70676 9.4449 8.67599 9.48945 8.63576C9.534 8.59553 9.56991 8.54667 9.59501 8.49214C9.6201 8.43762 9.63385 8.37857 9.63542 8.31858C9.637 8.25858 9.62636 8.1989 9.60417 8.14313C9.51193 7.88851 9.34345 7.66847 9.12165 7.51296C8.89985 7.35745 8.63551 7.27401 8.36458 7.27401C8.09366 7.27401 7.82931 7.35745 7.60751 7.51296C7.38571 7.66847 7.21723 7.88851 7.125 8.14313C7.10192 8.19881 7.09061 8.25865 7.09176 8.3189C7.09292 8.37915 7.10652 8.43852 7.13172 8.49327C7.15691 8.54801 7.19316 8.59697 7.23818 8.63705C7.2832 8.67714 7.33602 8.70749 7.39333 8.7262C7.44912 8.74839 7.50884 8.75902 7.56886 8.75744C7.62888 8.75587 7.68795 8.74212 7.7425 8.71704C7.79705 8.69196 7.84593 8.65607 7.88618 8.61154C7.92644 8.56701 7.95722 8.51477 7.97667 8.45799C8.00732 8.37357 8.06324 8.30063 8.13681 8.24908C8.21039 8.19754 8.29807 8.16988 8.38792 8.16988C8.47777 8.16988 8.56544 8.19754 8.63902 8.24908C8.7126 8.30063 8.76851 8.37357 8.79917 8.45799L8.77583 8.43467Z" fill="black"/>
</svg>
