<svg width="16" height="16" viewBox="0 0 16 16" fill="none" xmlns="http://www.w3.org/2000/svg">
<path d="M12.9524 7.69048H12.0238V5.21429C12.0238 4.88592 11.8934 4.57101 11.6612 4.33882C11.429 4.10663 11.1141 3.97619 10.7857 3.97619H8.30952V3.04762C8.30952 2.63716 8.14647 2.24352 7.85624 1.95329C7.566 1.66305 7.17236 1.5 6.7619 1.5C6.35145 1.5 5.95781 1.66305 5.66757 1.95329C5.37734 2.24352 5.21429 2.63716 5.21429 3.04762V3.97619H2.7381C2.40973 3.97619 2.09482 4.10663 1.86263 4.33882C1.63044 4.57101 1.5 4.88592 1.5 5.21429V7.56667H2.42857C3.35714 7.56667 4.1 8.30952 4.1 9.2381C4.1 10.1667 3.35714 10.9095 2.42857 10.9095H1.5V13.2619C1.5 13.5903 1.63044 13.9052 1.86263 14.1374C2.09482 14.3696 2.40973 14.5 2.7381 14.5H5.09048V13.5714C5.09048 12.6429 5.83333 11.9 6.7619 11.9C7.69048 11.9 8.43333 12.6429 8.43333 13.5714V14.5H10.7857C11.1141 14.5 11.429 14.3696 11.6612 14.1374C11.8934 13.9052 12.0238 13.5903 12.0238 13.2619V10.7857H12.9524C13.3628 10.7857 13.7565 10.6227 14.0467 10.3324C14.3369 10.0422 14.5 9.64855 14.5 9.2381C14.5 8.82764 14.3369 8.434 14.0467 8.14376C13.7565 7.85353 13.3628 7.69048 12.9524 7.69048Z" fill="black"/>
</svg>
