<svg width="230" height="55" viewBox="0 0 230 55" fill="none" xmlns="http://www.w3.org/2000/svg">
<g clip-path="url(#clip0_10_2)">
<mask id="mask0_10_2" style="mask-type:luminance" maskUnits="userSpaceOnUse" x="-3" y="-91" width="237" height="238">
<path d="M-3 -90.0628H233.435V146.372H-3V-90.0628Z" fill="white"/>
</mask>
<g mask="url(#mask0_10_2)">
<path d="M75.3948 23.3271C75.3948 23.5927 75.4224 23.8325 75.475 24.0449C75.7413 25.1082 76.6713 25.9594 77.841 25.9594C79.5683 25.9594 80.6316 24.6298 80.6316 22.2907C80.6316 20.2702 79.7278 18.6759 77.841 18.6759C76.7507 18.6759 75.7413 19.5001 75.475 20.6692C75.4224 20.9086 75.3948 21.1476 75.3948 21.4139V23.3271ZM71.3554 9.98393H75.3948V17.4001H75.4487C76.2197 16.2836 77.575 15.5658 79.3824 15.5658C82.4922 15.5658 84.7518 18.1442 84.7248 22.1314C84.7248 26.8089 81.7747 29.1483 78.7979 29.1483C77.2824 29.1483 75.7938 28.5901 74.8908 27.0483H74.8376L74.6777 28.8557H71.249C71.3022 28.0052 71.3554 26.4378 71.3554 24.9756V9.98393Z" fill="#406A9D"/>
<path d="M87.2509 20.1375C87.2509 18.2237 87.224 16.9748 87.1445 15.8583H90.6001L90.7594 18.2506H90.8651C91.5301 16.3368 93.0984 15.5395 94.3739 15.5395C94.7466 15.5395 94.9328 15.5658 95.2244 15.619V19.4197C94.9062 19.3665 94.587 19.3139 94.1348 19.3139C92.6462 19.3139 91.6358 20.1112 91.3705 21.3601C91.3179 21.6261 91.291 21.9449 91.291 22.2638V28.8557H87.2509V20.1375Z" fill="#406A9D"/>
<path d="M103.971 22.7158C101.845 22.7158 100.196 23.2206 100.196 24.7623C100.196 25.7997 100.888 26.3044 101.791 26.3044C102.774 26.3044 103.625 25.6398 103.891 24.8158C103.945 24.6034 103.971 24.3643 103.971 24.1249V22.7158ZM107.878 25.7199C107.878 26.9425 107.931 28.1387 108.09 28.8556H104.449L104.21 27.5529H104.13C103.28 28.5903 101.951 29.1482 100.409 29.1482C97.7778 29.1482 96.2095 27.2344 96.2095 25.1613C96.2095 21.7852 99.2388 20.1906 103.838 20.1906V20.031C103.838 19.3141 103.465 18.3303 101.472 18.3303C100.144 18.3303 98.7347 18.7822 97.8836 19.3141L97.1395 16.7088C98.0432 16.204 99.8243 15.5394 102.19 15.5394C106.522 15.5394 107.878 18.0909 107.878 21.1741V25.7199Z" fill="#406A9D"/>
<path d="M111.095 20.0048C111.095 18.3836 111.042 17.0277 110.989 15.8583H114.498L114.683 17.6658H114.763C115.295 16.8153 116.598 15.5658 118.777 15.5658C121.435 15.5658 123.428 17.3469 123.428 21.1742V28.8557H119.388V21.6527C119.388 19.9779 118.803 18.8348 117.341 18.8348C116.225 18.8348 115.561 19.6058 115.269 20.3506C115.162 20.6159 115.135 20.988 115.135 21.3601V28.8557H111.095V20.0048Z" fill="#406A9D"/>
<path d="M126.645 25.3474C127.389 25.7996 128.931 26.3043 130.127 26.3043C131.35 26.3043 131.855 25.9053 131.855 25.241C131.855 24.5501 131.456 24.2309 129.967 23.7265C127.257 22.8221 126.22 21.3598 126.246 19.8187C126.246 17.3733 128.32 15.5396 131.536 15.5396C133.051 15.5396 134.38 15.9116 135.178 16.3096L134.486 19.1009C133.902 18.7824 132.759 18.3564 131.669 18.3564C130.685 18.3564 130.127 18.7554 130.127 19.3935C130.127 20.0309 130.632 20.3504 132.227 20.9083C134.699 21.7588 135.709 23.0346 135.736 24.9221C135.736 27.3676 133.849 29.1481 130.127 29.1481C128.426 29.1481 126.911 28.7497 125.928 28.2181L126.645 25.3474Z" fill="#406A9D"/>
<path d="M141.637 22.3433C141.637 24.5766 142.567 26.251 144.295 26.251C145.889 26.251 146.873 24.6823 146.873 22.3176C146.873 20.4038 146.129 18.4365 144.295 18.4365C142.381 18.4365 141.637 20.4301 141.637 22.3433ZM151.046 22.2112C151.046 26.9688 147.671 29.1483 144.189 29.1483C140.387 29.1483 137.464 26.6493 137.464 22.4503C137.464 18.2237 140.228 15.5395 144.428 15.5395C148.388 15.5395 151.046 18.2769 151.046 22.2112Z" fill="#406A9D"/>
<path d="M153.546 20.0048C153.546 18.3836 153.493 17.0277 153.44 15.8583H156.948L157.134 17.6658H157.214C157.745 16.8153 159.048 15.5658 161.228 15.5658C163.886 15.5658 165.879 17.3469 165.879 21.1742V28.8557H161.839V21.6527C161.839 19.9779 161.254 18.8348 159.792 18.8348C158.676 18.8348 158.012 19.6058 157.719 20.3506C157.613 20.6159 157.586 20.988 157.586 21.3601V28.8557H153.546V20.0048Z" fill="#406A9D"/>
<path d="M168.83 26.7026C168.83 25.241 169.814 24.2309 171.222 24.2309C172.605 24.2309 173.561 25.2141 173.588 26.7026C173.588 28.1117 172.631 29.1481 171.169 29.1481C169.814 29.1481 168.83 28.1117 168.83 26.7026Z" fill="#406A9D"/>
<path d="M185.789 28.5106C185.071 28.8557 183.716 29.1217 182.174 29.1217C177.974 29.1217 175.29 26.5436 175.29 22.4766C175.29 18.6759 177.895 15.5658 182.732 15.5658C183.795 15.5658 184.965 15.752 185.815 16.0705L185.178 19.0742C184.699 18.8617 183.981 18.6759 182.918 18.6759C180.792 18.6759 179.41 20.1907 179.436 22.3176C179.436 24.6823 181.031 25.9591 182.998 25.9591C183.955 25.9591 184.699 25.7995 185.31 25.5335L185.789 28.5106Z" fill="#406A9D"/>
<path d="M191.158 22.3433C191.158 24.5766 192.089 26.251 193.817 26.251C195.412 26.251 196.395 24.6823 196.395 22.3176C196.395 20.4038 195.65 18.4365 193.817 18.4365C191.903 18.4365 191.158 20.4301 191.158 22.3433ZM200.568 22.2112C200.568 26.9688 197.192 29.1483 193.71 29.1483C189.909 29.1483 186.985 26.6493 186.985 22.4503C186.985 18.2237 189.75 15.5395 193.949 15.5395C197.91 15.5395 200.568 18.2769 200.568 22.2112Z" fill="#406A9D"/>
<path d="M203.067 20.0048C203.067 18.3836 203.015 17.0277 202.961 15.8583H206.39L206.55 17.6126H206.629C207.187 16.7621 208.356 15.5395 210.563 15.5395C212.264 15.5395 213.567 16.4163 214.125 17.7715H214.178C214.683 17.0809 215.241 16.5493 215.879 16.1772C216.597 15.7789 217.394 15.5395 218.351 15.5395C220.85 15.5395 222.737 17.2937 222.737 21.2011V28.8557H218.803V21.7853C218.803 19.8984 218.191 18.8085 216.889 18.8085C215.933 18.8085 215.295 19.4469 215.002 20.2173C214.922 20.5096 214.869 20.9085 214.869 21.2537V28.8557H210.936V21.5466C210.936 19.9247 210.35 18.8085 209.048 18.8085C208.012 18.8085 207.4 19.6058 207.161 20.2442C207.028 20.5634 207.002 20.9348 207.002 21.2806V28.8557H203.067V20.0048Z" fill="#406A9D"/>
<path d="M227.142 15.3016H226.928V16.0385H227.142C227.356 16.0385 227.544 15.918 227.544 15.6766C227.544 15.4221 227.356 15.3016 227.142 15.3016ZM227.932 17.8338L227.142 16.6677H226.928V17.8069H226.191V14.6718H227.208C227.745 14.6718 228.321 15.0337 228.321 15.6766C228.321 16.0116 228.12 16.3061 227.865 16.4671L228.589 17.4584L227.932 17.8338ZM227.195 14.1221C225.989 14.1221 225.079 15.0067 225.079 16.2392C225.079 17.4584 225.989 18.3566 227.195 18.3566C228.388 18.3566 229.285 17.4584 229.285 16.2392C229.285 15.0067 228.388 14.1221 227.195 14.1221ZM227.195 18.9595C225.641 18.9595 224.449 17.8069 224.449 16.2392C224.449 14.6718 225.641 13.5192 227.195 13.5192C228.736 13.5192 229.928 14.6718 229.928 16.2392C229.928 17.8069 228.736 18.9595 227.195 18.9595Z" fill="#406A9D"/>
<path d="M61.7041 19.6449L68.8067 16.3276L67.0781 28.7792C67.0781 28.7792 64.5909 28.7474 63.0265 28.7805L61.7041 19.6449Z" fill="#3E6B9E"/>
<path d="M64.9709 16.054C66.6053 16.054 67.9297 14.7641 67.9297 13.1731C67.9297 11.5817 66.6053 10.2918 64.9709 10.2918C63.3372 10.2918 62.0122 11.5817 62.0122 13.1731C62.0122 14.7641 63.3372 16.054 64.9709 16.054Z" fill="#3E6B9E"/>
<path d="M53.8587 28.0033C53.8587 42.7799 41.8793 54.7599 27.1028 54.7599C12.3249 54.7599 0.345215 42.7799 0.345215 28.0033C0.345215 13.2261 12.3249 1.24674 27.1028 1.24674C41.8793 1.24674 53.8587 13.2261 53.8587 28.0033Z" fill="#406A9D"/>
</g>
<path d="M6.17285 28.0034C6.17285 39.5611 15.5439 48.9312 27.1023 48.9312C38.6584 48.9312 48.0288 39.5611 48.0288 28.0034C48.0288 16.4443 38.6584 7.07589 27.1023 7.07589C15.5439 7.07589 6.17285 16.4443 6.17285 28.0034Z" fill="url(#paint0_linear_10_2)"/>
<mask id="mask1_10_2" style="mask-type:luminance" maskUnits="userSpaceOnUse" x="-3" y="-91" width="237" height="238">
<path d="M-3 -90.0628H233.435V146.372H-3V-90.0628Z" fill="white"/>
</mask>
<g mask="url(#mask1_10_2)">
<path d="M26.5701 12.2788C23.4498 12.2788 20.9189 14.8136 20.9189 17.9346C20.9189 21.0558 23.4498 23.5857 26.5701 23.5857C29.6936 23.5857 32.232 21.0558 32.232 17.9346C32.232 14.8136 29.6936 12.2788 26.5701 12.2788Z" fill="white"/>
<path d="M31.9527 45.3403L35.7514 23.9429L20.2156 29.594L23.0506 45.5429C15.0597 43.701 9.08645 36.5459 9.08645 28.0027C9.08645 18.0658 17.1722 9.98402 27.1025 9.98402C37.0318 9.98402 45.1175 18.0658 45.1175 28.0027C45.1175 36.2552 39.5357 43.214 31.9527 45.3403ZM27.1025 5.74593C14.8082 5.74593 4.84375 15.7097 4.84375 28.0027C4.84375 40.2973 14.8082 50.2607 27.1025 50.2607C39.3964 50.2607 49.3602 40.2973 49.3602 28.0027C49.3602 15.7097 39.3964 5.74593 27.1025 5.74593Z" fill="white"/>
<path d="M66.5368 46.0112C67.3893 46.0112 68.0858 45.6746 68.6263 45.0004L69.7388 46.1451C68.8558 47.1388 67.8175 47.635 66.6202 47.635C65.4232 47.635 64.4381 47.2567 63.6631 46.5004C62.8891 45.7452 62.502 44.7906 62.502 43.6379C62.502 42.4856 62.8963 41.5248 63.6858 40.7538C64.4749 39.9831 65.4393 39.5982 66.5811 39.5982C67.8562 39.5982 68.9228 40.0835 69.7825 41.0539L68.7048 42.2771C68.1567 41.5947 67.474 41.2542 66.6593 41.2542C66.0071 41.2542 65.4489 41.467 64.9858 41.8929C64.5222 42.3195 64.291 42.8935 64.291 43.6156C64.291 44.3384 64.5094 44.9183 64.9468 45.3557C65.3842 45.7938 65.9142 46.0112 66.5368 46.0112Z" fill="#406A9D"/>
<path d="M76.7083 39.7751V41.3208H72.84V42.9217H76.3189V44.3994H72.84V46.0111H76.8302V47.5453H71.1055V39.7751H76.7083Z" fill="#406A9D"/>
<path d="M78.3755 47.5453V39.7751H80.11V46.0003H83.4221V47.5453H78.3755Z" fill="#406A9D"/>
<path d="M90.2918 39.7751V41.3208H86.4235V42.9217H89.9024V44.3994H86.4235V46.0111H90.4137V47.5453H84.689V39.7751H90.2918Z" fill="#406A9D"/>
<path d="M93.693 46.0785H94.8827C95.3786 46.0785 95.752 46.0174 95.9999 45.8943C96.2478 45.7725 96.3719 45.5321 96.3719 45.1722C96.3719 44.8126 96.2406 44.5752 95.9776 44.4609C95.7145 44.3457 95.2935 44.2885 94.7159 44.2885H93.693V46.0785ZM93.693 42.9218H94.5159C94.9977 42.9218 95.3549 42.8696 95.5884 42.7658C95.8216 42.662 95.9385 42.4374 95.9385 42.0936C95.9385 41.7491 95.8314 41.5209 95.6163 41.4099C95.4016 41.2983 95.0381 41.2431 94.5268 41.2431H93.693V42.9218ZM95.3609 47.5454H91.9595V39.7752H94.9829C95.5086 39.7752 95.9621 39.8386 96.3437 39.9644C96.7259 40.0908 97.0126 40.2606 97.206 40.4757C97.5541 40.8756 97.7285 41.3278 97.7285 41.8319C97.7285 42.4401 97.5315 42.8922 97.1397 43.1878C97.0057 43.2919 96.9128 43.3566 96.8609 43.3822C96.8093 43.4085 96.7164 43.4508 96.5834 43.5106C97.0642 43.6143 97.4484 43.8304 97.7337 44.1601C98.0185 44.4905 98.162 44.8996 98.162 45.3883C98.162 45.9304 97.9767 46.4082 97.6057 46.8233C97.1755 47.3047 96.4274 47.5454 95.3609 47.5454Z" fill="#406A9D"/>
<path d="M103.831 43.277C104.045 43.0839 104.153 42.7785 104.153 42.3598C104.153 41.9411 104.042 41.6544 103.82 41.4985C103.597 41.3425 103.208 41.265 102.652 41.265H101.352V43.5663H102.619C103.212 43.5663 103.616 43.4694 103.831 43.277ZM105.92 42.3546C105.92 43.5994 105.428 44.4033 104.442 44.7668L106.41 47.5453H104.276L102.553 45.0663H101.352V47.5453H99.6182V39.7751H102.564C103.772 39.7751 104.634 39.9797 105.149 40.3869C105.663 40.7947 105.92 41.4508 105.92 42.3546Z" fill="#406A9D"/>
<path d="M110.89 42.0872L109.911 44.3442H111.857L110.89 42.0872ZM113.236 47.5453L112.513 45.8669H109.256L108.533 47.5453H106.688L110.046 39.7751H111.723L115.08 47.5453H113.236Z" fill="#406A9D"/>
<path d="M118.704 41.2766V47.5454H116.97V41.2766H114.769V39.7752H120.905V41.2766H118.704Z" fill="#406A9D"/>
<path d="M122.172 39.7752H123.906V47.5454H122.172V39.7752Z" fill="#406A9D"/>
<path d="M131.254 39.7751H132.989V47.5453H131.254L127.553 42.6767V47.5453H125.818V39.7751H127.441L131.254 44.777V39.7751Z" fill="#406A9D"/>
<path d="M139.947 43.5887H141.693V46.3448C140.922 47.2055 139.854 47.635 138.491 47.635C137.349 47.635 136.391 47.2567 135.617 46.5004C134.843 45.7448 134.456 44.7906 134.456 43.6379C134.456 42.4856 134.851 41.5248 135.64 40.7538C136.429 39.9831 137.381 39.5982 138.497 39.5982C139.612 39.5982 140.581 39.9643 141.403 40.6979L140.503 41.9987C140.154 41.6952 139.834 41.4864 139.541 41.3708C139.248 41.2565 138.932 41.199 138.591 41.199C137.931 41.199 137.376 41.4227 136.924 41.8712C136.471 42.3195 136.245 42.9102 136.245 43.6439C136.245 44.3775 136.462 44.9643 136.896 45.4056C137.329 45.8463 137.846 46.067 138.446 46.067C139.046 46.067 139.547 45.9521 139.947 45.7225V43.5887Z" fill="#406A9D"/>
<path d="M172.286 47.5453H170.552V44.4769L167.862 39.7751H169.74L171.419 42.6659L173.098 39.7751H174.976L172.286 44.4769V47.5453Z" fill="#406A9D"/>
<path d="M181.413 39.7751V41.3208H177.544V42.9217H181.024V44.3994H177.544V46.0111H181.535V47.5453H175.81V39.7751H181.413Z" fill="#406A9D"/>
<path d="M186.27 42.0872L185.292 44.3442H187.237L186.27 42.0872ZM188.616 47.5453L187.893 45.8669H184.636L183.914 47.5453H182.069L185.426 39.7751H187.104L190.461 47.5453H188.616Z" fill="#406A9D"/>
<path d="M195.575 43.277C195.789 43.0839 195.896 42.7785 195.896 42.3598C195.896 41.9411 195.785 41.6544 195.563 41.4985C195.341 41.3425 194.952 41.265 194.396 41.265H193.096V43.5663H194.363C194.956 43.5663 195.36 43.4694 195.575 43.277ZM197.664 42.3546C197.664 43.5994 197.172 44.4033 196.185 44.7668L198.153 47.5453H196.019L194.297 45.0663H193.096V47.5453H191.362V39.7751H194.307C195.516 39.7751 196.376 39.9797 196.892 40.3869C197.406 40.7947 197.664 41.4508 197.664 42.3546Z" fill="#406A9D"/>
<path d="M201.261 41.3266C201.093 41.4638 201.01 41.6448 201.01 41.871C201.01 42.097 201.112 42.2772 201.316 42.4106C201.52 42.5432 201.991 42.7005 202.727 42.8825C203.465 43.0641 204.038 43.3366 204.446 43.6991C204.852 44.062 205.058 44.5923 205.058 45.2888C205.058 45.9857 204.795 46.5505 204.273 46.984C203.75 47.4177 203.063 47.6351 202.211 47.6351C200.98 47.6351 199.873 47.1784 198.887 46.2671L199.921 45.0005C200.758 45.7335 201.532 46.1003 202.244 46.1003C202.563 46.1003 202.813 46.0323 202.994 45.8944C203.176 45.7578 203.267 45.5726 203.267 45.3391C203.267 45.1049 203.17 44.9201 202.978 44.7828C202.785 44.6462 202.403 44.5066 201.833 44.3661C200.929 44.1513 200.268 43.8715 199.849 43.5271C199.43 43.1819 199.22 42.6414 199.22 41.9045C199.22 41.167 199.485 40.5979 200.015 40.1976C200.545 39.7983 201.207 39.598 202 39.598C202.518 39.598 203.037 39.6866 203.555 39.865C204.074 40.042 204.527 40.2945 204.912 40.6206L204.033 41.8871C203.36 41.3758 202.663 41.1207 201.944 41.1207C201.655 41.1207 201.427 41.1893 201.261 41.3266Z" fill="#406A9D"/>
<path d="M206.629 47.3516C206.441 47.1625 206.347 46.9303 206.347 46.6564C206.347 46.3819 206.441 46.1504 206.629 45.9619C206.818 45.7724 207.05 45.6782 207.324 45.6782C207.598 45.6782 207.83 45.7724 208.019 45.9619C208.208 46.1504 208.303 46.3819 208.303 46.6564C208.303 46.9303 208.208 47.1625 208.019 47.3516C207.83 47.5401 207.598 47.635 207.324 47.635C207.05 47.635 206.818 47.5401 206.629 47.3516ZM206.347 39.7752H208.313V41.1541L207.98 45.1551H206.668L206.347 41.1541V39.7752Z" fill="#406A9D"/>
<path d="M144.998 43.5656C144.998 37.8761 149.611 33.2633 155.299 33.2633C160.989 33.2633 165.601 37.8761 165.601 43.5656C165.601 49.2558 160.989 53.8673 155.299 53.8673C149.611 53.8673 144.998 49.2558 144.998 43.5656Z" fill="#8CC63F"/>
<path d="M154.088 44.2532C154.338 44.5846 154.462 44.9921 154.462 45.4761C154.462 46.1756 154.198 46.7263 153.67 47.1282C153.141 47.5301 152.423 47.7314 151.515 47.7314C150.964 47.7314 150.435 47.6513 149.929 47.4911C149.423 47.3311 149.014 47.1134 148.701 46.8379L149.259 45.5874C149.966 46.101 150.692 46.3578 151.437 46.3578C151.92 46.3578 152.272 46.2741 152.492 46.1069C152.711 45.9395 152.821 45.6731 152.821 45.3083C152.821 44.9586 152.711 44.7038 152.492 44.5438C152.272 44.3836 151.92 44.3035 151.437 44.3035H150.298V42.9413H151.247C151.708 42.9413 152.051 42.8615 152.274 42.7013C152.497 42.5414 152.609 42.2977 152.609 41.97C152.609 41.6426 152.51 41.3933 152.313 41.2223C152.116 41.0508 151.835 40.9651 151.47 40.9651C151.128 40.9651 150.778 41.0305 150.421 41.1605C150.063 41.2909 149.714 41.4827 149.371 41.7355L148.813 40.485C149.133 40.2099 149.542 39.9921 150.041 39.8319C150.539 39.672 151.053 39.5922 151.582 39.5922C152.118 39.5922 152.589 39.6812 152.994 39.8598C153.4 40.0384 153.712 40.288 153.932 40.6079C154.151 40.928 154.261 41.304 154.261 41.7355C154.261 42.1673 154.153 42.5414 153.938 42.8576C153.722 43.1742 153.416 43.4067 153.022 43.5554C153.483 43.6894 153.839 43.9222 154.088 44.2532Z" fill="white"/>
<path d="M159.364 45.7549C159.565 45.3234 159.665 44.6237 159.665 43.6559C159.665 42.7105 159.565 42.0242 159.364 41.596C159.163 41.1681 158.843 40.954 158.403 40.954C157.964 40.954 157.644 41.1681 157.443 41.596C157.242 42.0242 157.142 42.7105 157.142 43.6559C157.142 44.6237 157.242 45.3234 157.443 45.7549C157.644 46.1864 157.964 46.4025 158.403 46.4025C158.843 46.4025 159.163 46.1864 159.364 45.7549ZM156.198 46.6928C155.689 45.9933 155.434 44.9809 155.434 43.6559C155.434 42.346 155.689 41.3448 156.198 40.6525C156.708 39.9603 157.443 39.6142 158.403 39.6142C159.364 39.6142 160.099 39.9603 160.609 40.6525C161.119 41.3448 161.373 42.346 161.373 43.6559C161.373 44.9809 161.119 45.9933 160.609 46.6928C160.099 47.3926 159.364 47.7423 158.403 47.7423C157.443 47.7423 156.708 47.3926 156.198 46.6928Z" fill="white"/>
</g>
</g>
<defs>
<linearGradient id="paint0_linear_10_2" x1="16.6357" y1="9.87674" x2="37.5667" y2="46.1303" gradientUnits="userSpaceOnUse">
<stop stop-color="#8CC63F"/>
<stop offset="0.66213" stop-color="#8CC63F"/>
<stop offset="1" stop-color="#416819"/>
</linearGradient>
<clipPath id="clip0_10_2">
<rect width="230" height="55" fill="white"/>
</clipPath>
</defs>
</svg>
