<svg width="102" height="30" viewBox="0 0 102 30" fill="none" xmlns="http://www.w3.org/2000/svg">
<path d="M10.6197 22.2271C10.0782 22.4741 9.41122 22.7212 8.61929 22.9682C7.82678 23.2156 6.99961 23.3391 6.13748 23.3391C5.57562 23.3391 5.04929 23.2668 4.55791 23.1229C4.06625 22.9791 3.63504 22.7476 3.26429 22.4282C2.89267 22.1091 2.59727 21.6976 2.37666 21.1929C2.15575 20.6885 2.04573 20.0765 2.04573 19.3556V10.0591H0V6.87853H2.04573V1.62824H6.07702V6.87853H9.41609V10.0591H6.07731V17.965C6.07731 18.5418 6.22744 18.9485 6.52857 19.1847C6.82942 19.4218 7.19043 19.54 7.61132 19.54C8.03279 19.54 8.44337 19.4679 8.84506 19.3238C9.2459 19.18 9.56709 19.0565 9.80747 18.9532L10.6197 22.2271Z" fill="#0284C7"/>
<path d="M22.0214 10.4609C20.7977 10.4815 19.7049 10.7235 18.7425 11.1868C17.7798 11.6497 17.0879 12.345 16.6667 13.2712V23.0609H12.6354V6.87853H16.3358V10.3374C16.8773 9.22559 17.5841 8.33 18.4566 7.65059C19.329 6.97088 20.2467 6.63118 21.2091 6.63118C21.4298 6.63118 21.5951 6.63676 21.7054 6.64676C21.8154 6.65735 21.9208 6.67294 22.0214 6.69294V10.4609Z" fill="#0284C7"/>
<path d="M28.3082 6.87866H24.2769V23.061H28.3082V6.87866Z" fill="#0284C7"/>
<path d="M41.3049 23.3696C40.0812 23.3696 39.0079 23.0863 38.0859 22.5201C37.163 21.9543 36.4413 21.1875 35.9198 20.2196V29.6387H31.8885V6.87867H35.4084V9.65779C35.9897 8.71102 36.7418 7.96455 37.6647 7.41896C38.587 6.87367 39.6503 6.60073 40.8536 6.60073C41.9163 6.60073 42.8994 6.8222 43.8019 7.26485C44.7041 7.70779 45.4815 8.30455 46.1336 9.05602C46.7848 9.80779 47.2965 10.6925 47.6676 11.7116C48.0386 12.731 48.224 13.8069 48.224 14.939C48.224 16.1125 48.0532 17.214 47.7126 18.2434C47.3716 19.2731 46.8951 20.1687 46.2837 20.9301C45.6717 21.6922 44.9399 22.289 44.0875 22.7213C43.2349 23.1537 42.3074 23.3696 41.3049 23.3696ZM39.9812 19.8493C40.5829 19.8493 41.1393 19.7157 41.6507 19.4478C42.1622 19.1804 42.5985 18.8198 42.9592 18.3669C43.3205 17.9143 43.601 17.3893 43.8016 16.7919C44.0019 16.1951 44.1024 15.5775 44.1024 14.939C44.1024 14.2596 43.9918 13.6266 43.7715 13.0398C43.5506 12.4531 43.2452 11.9434 42.8541 11.5113C42.463 11.0787 42.0011 10.7393 41.4702 10.4919C40.9387 10.2448 40.362 10.1213 39.7405 10.1213C39.3592 10.1213 38.9681 10.1887 38.5669 10.3222C38.1658 10.4563 37.7948 10.6466 37.4538 10.8934C37.1126 11.1404 36.8069 11.429 36.5364 11.7581C36.2656 12.0875 36.0596 12.4481 35.9198 12.839V16.6375C36.2808 17.5637 36.8324 18.3313 37.5742 18.9381C38.3159 19.5454 39.1185 19.8493 39.9812 19.8493Z" fill="#0284C7"/>
<path d="M54.932 6.87866H50.901V23.061H54.932V6.87866Z" fill="#0284C7"/>
<path d="M63.3262 23.3694C61.7017 23.3694 60.4682 22.8344 59.6256 21.7635C58.7835 20.6932 58.3626 19.1076 58.3626 17.0076V6.87853H62.3933V16.1124C62.3933 18.6038 63.2658 19.8491 65.0112 19.8491C65.8132 19.8491 66.5799 19.6074 67.3123 19.1232C68.0443 18.6397 68.6408 17.9035 69.1024 16.9153V6.87853H73.1337V18.305C73.1337 18.7374 73.2136 19.0462 73.3744 19.2315C73.5345 19.4168 73.8153 19.5197 74.2164 19.5403V23.0609C73.795 23.1429 73.4239 23.2 73.1033 23.2306C72.7821 23.2615 72.5016 23.2771 72.2613 23.2771C71.5389 23.2771 70.9719 23.1071 70.5611 22.7676C70.1496 22.4279 69.8941 21.9597 69.7938 21.3624L69.7038 20.0344C68.9818 21.1462 68.0741 21.98 66.9813 22.5359C65.888 23.0918 64.6697 23.3694 63.3262 23.3694Z" fill="#0284C7"/>
<path d="M101.713 23.0609H97.682V13.9815C97.682 12.6845 97.4611 11.7377 97.0199 11.1404C96.5784 10.5436 95.9767 10.2448 95.2145 10.2448C94.4326 10.2448 93.6903 10.5589 92.9883 11.1868C92.286 11.8151 91.7852 12.6333 91.4841 13.6418V23.0609H87.4528V13.9815C87.4528 12.6845 87.2373 11.7377 86.8058 11.1404C86.3743 10.5436 85.7778 10.2448 85.0163 10.2448C84.2341 10.2448 83.4863 10.5536 82.7751 11.1712C82.0628 11.7889 81.5563 12.6024 81.2557 13.6109V23.0609H77.2244V6.87859H80.8646V9.87418C81.446 8.82418 82.2433 8.01653 83.2565 7.45006C84.2687 6.88388 85.4271 6.60065 86.7311 6.60065C88.0545 6.60065 89.0725 6.93006 89.7848 7.58859C90.4959 8.24771 90.9626 9.06094 91.1832 10.0286C91.825 8.91682 92.6376 8.06741 93.6204 7.48065C94.6031 6.89388 95.7263 6.60065 96.9898 6.60065C97.9522 6.60065 98.7447 6.78594 99.3664 7.15653C99.9882 7.52712 100.47 8.01094 100.811 8.6083C101.151 9.20535 101.387 9.88506 101.518 10.6465C101.648 11.4086 101.713 12.1806 101.713 12.9627V23.0609H101.713Z" fill="#0284C7"/>
<path opacity="0.5" d="M26.3366 5.00706C27.6836 5.00706 28.7755 3.88619 28.7755 2.50353C28.7755 1.12087 27.6836 0 26.3366 0C24.9897 0 23.8978 1.12087 23.8978 2.50353C23.8978 3.88619 24.9897 5.00706 26.3366 5.00706Z" fill="#0284C7"/>
<path opacity="0.5" d="M52.8773 5.00676C54.224 5.00676 55.3158 3.88603 55.3158 2.50353C55.3158 1.12103 54.224 0.000293732 52.8773 0.000293732C51.5305 0.000293732 50.4387 1.12103 50.4387 2.50353C50.4387 3.88603 51.5305 5.00676 52.8773 5.00676Z" fill="#0284C7"/>
</svg>
